<svg width="19" height="16" viewBox="0 0 19 16" fill="none" xmlns="http://www.w3.org/2000/svg">
<g id="Group">
<path id="Vector" d="M10.4824 9.5939H8.01867V10.6576H10.4824V9.5939Z" fill="#253974"/>
<path id="Vector_2" d="M4.15551 10.6568H6.96344V11.7197H11.5366V10.6568H14.3445C15.9283 10.6568 17.341 9.90562 18.25 8.73831V16H0.250004V8.73831C1.15897 9.90562 2.57172 10.6568 4.15551 10.6568Z" fill="#253974"/>
<path id="Vector_3" d="M14.3445 9.59473H11.5366V8.53186H6.96344V9.59473H4.15551C2.02416 9.59473 0.28625 7.86683 0.250004 5.72916V2.12578H5.62891V0H12.8711V2.12578H18.25V5.72902C18.2138 7.86683 16.4758 9.59473 14.3445 9.59473ZM11.8164 1.06206H6.6836V2.12578H11.8164V1.06206Z" fill="#253974"/>
</g>
</svg>
