<svg width="13" height="13" viewBox="0 0 13 13" fill="none" xmlns="http://www.w3.org/2000/svg">
<path id="Vector" d="M12.9232 0.401894C12.8896 0.355229 12.8465 0.316236 12.7967 0.287486C12.7469 0.258737 12.6917 0.240884 12.6345 0.235107L10.3298 0.00209958C10.1068 -0.0205423 9.90738 0.14253 9.88486 0.366226C9.86231 0.589897 10.025 0.789527 10.2483 0.812067L11.4882 0.937437L9.67297 2.24995C9.01647 1.52824 8.07118 1.07461 7.02209 1.07461C5.94995 1.07461 4.98635 1.54849 4.32848 2.29803C4.08467 2.2465 3.83616 2.22056 3.58698 2.22062C1.60913 2.22062 0 3.8329 0 5.81462C0 7.65874 1.39346 9.18263 3.18073 9.38544V10.5639H1.96818C1.7438 10.5639 1.56193 10.7462 1.56193 10.971C1.56193 11.1957 1.7438 11.378 1.96818 11.378H3.18075V12.593C3.18075 12.8177 3.36263 13 3.587 13C3.81138 13 3.99325 12.8177 3.99325 12.593V11.378H5.20583C5.43021 11.378 5.61208 11.1957 5.61208 10.971C5.61208 10.7462 5.43021 10.5639 5.20583 10.5639H3.99325V9.38544C4.90099 9.28244 5.70704 8.83871 6.28061 8.18522C6.52443 8.23675 6.77294 8.2627 7.02212 8.26264H7.02215C7.98021 8.26264 8.88107 7.88877 9.55851 7.20999C10.236 6.53117 10.6091 5.62863 10.6091 4.66864C10.6091 4.03003 10.4418 3.42992 10.1491 2.90964L11.9637 1.59761L11.6917 2.81623C11.6427 3.03562 11.7805 3.25324 11.9995 3.30229C12.0294 3.30898 12.0592 3.31219 12.0886 3.31219C12.2746 3.31219 12.4423 3.18336 12.4847 2.9939L12.9902 0.728954C13.0027 0.672786 13.0032 0.614597 12.9917 0.558223C12.9801 0.501848 12.9568 0.448568 12.9232 0.401894ZM5.96813 7.23996C4.95949 6.82338 4.24762 5.8278 4.24762 4.66864C4.24762 4.14795 4.39135 3.66034 4.64097 3.24329C5.64961 3.65988 6.36148 4.65546 6.36148 5.81462C6.36148 6.33531 6.21775 6.82292 5.96813 7.23996ZM3.58698 8.59456C2.05714 8.59456 0.812499 7.34747 0.812499 5.81462C0.812499 4.28177 2.05714 3.03471 3.58698 3.03471C3.66635 3.03471 3.74493 3.03825 3.82265 3.04483C3.57494 3.53283 3.43512 4.08465 3.43512 4.66861C3.43512 6.07833 4.24949 7.30084 5.43153 7.88928C4.94091 8.32766 4.29451 8.59456 3.58698 8.59456ZM8.98397 6.63433C8.45994 7.15939 7.76322 7.44852 7.02209 7.44852C6.94272 7.44852 6.86414 7.44499 6.78642 7.4384C7.03413 6.9504 7.17396 6.39858 7.17396 5.81462C7.17396 4.4049 6.35958 3.18239 5.17755 2.59396C5.66819 2.15557 6.31459 1.8887 7.02209 1.8887C8.55195 1.8887 9.79657 3.13578 9.79657 4.66861C9.7966 5.41119 9.50801 6.10929 8.98397 6.63433Z" fill="#253974"/>
</svg>
