<svg width="13" height="15" viewBox="0 0 13 15" fill="none" xmlns="http://www.w3.org/2000/svg">
<g id="Group">
<path id="Vector" d="M12.7265 10.4538C12.7088 9.91202 12.5883 9.60052 12.3357 9.4437C11.5009 8.92543 10.0818 9.51573 9.20371 9.9713C9.03587 9.75176 8.7476 9.63205 8.44523 9.67044L7.27147 9.82047C7.07052 9.84621 6.86205 9.81763 6.66861 9.7379C6.44261 9.64474 6.02186 9.47143 5.34666 9.54548C4.13391 9.67853 4.16842 9.77383 3.83431 9.92832C3.75755 9.96157 3.49499 10.0025 3.19347 10.0321C3.06071 9.74427 2.76059 9.54283 2.41224 9.54283H0.854144C0.383169 9.54283 0 9.91082 0 10.3631V14.0793C0 14.5317 0.383169 14.8997 0.854144 14.8997H2.41224C2.80444 14.8997 3.13553 14.6444 3.23538 14.2978L3.87229 14.1865C4.05157 14.1612 3.82856 14.1594 7.66096 14.4114C8.72795 14.4815 9.75381 14.0899 10.4291 13.4178C12.5572 11.3266 12.1977 11.6789 12.2393 11.6389C12.5677 11.3117 12.7407 10.8909 12.7265 10.4538ZM2.41222 14.0793H0.854144V10.3632H2.41224V14.0793H2.41222ZM11.6254 11.0687C9.49728 13.1598 9.85696 12.8073 9.81531 12.8473C9.29451 13.3663 8.51083 13.6451 7.71924 13.593L4.27599 13.3668C3.9052 13.3262 3.68136 13.3862 3.26639 13.4587V10.8504C3.59723 10.8192 3.99699 10.7636 4.20418 10.6678C4.52152 10.5211 4.409 10.474 5.44357 10.3606C5.89354 10.3112 6.15727 10.4199 6.33182 10.4918C6.66673 10.6298 7.03057 10.6788 7.38419 10.6337L8.52162 10.4883C8.56288 10.6252 8.57281 10.8108 8.51883 10.9262C8.49147 10.9847 8.45061 11.0202 8.3822 11.0447C7.90886 11.2147 7.90886 11.2147 5.87736 11.4967C5.64393 11.5291 5.48204 11.7371 5.51578 11.9613C5.54963 12.1862 5.76704 12.3409 5.99953 12.3085C8.08214 12.0195 8.12194 12.014 8.68135 11.813C9.10241 11.6618 9.3822 11.3072 9.40754 10.7993C10.1969 10.3586 11.3607 9.90144 11.8242 10.1075C11.8396 10.1546 11.8657 10.2641 11.8727 10.4795C11.8797 10.6931 11.7919 10.9023 11.6254 11.0687ZM7.28869 8.71997C9.5337 8.71997 11.3601 6.9659 11.3601 4.80981C11.3601 2.65373 9.5337 0.899658 7.28869 0.899658C5.04369 0.899658 3.21727 2.65373 3.21727 4.80981C3.21727 6.9659 5.04369 8.71997 7.28869 8.71997ZM7.28869 1.71997C9.06272 1.71997 10.506 3.10605 10.506 4.80981C10.506 6.51358 9.06272 7.89966 7.28869 7.89966C5.51467 7.89966 4.07142 6.51358 4.07142 4.80981C4.07142 3.10605 5.51467 1.71997 7.28869 1.71997Z" fill="#253974"/>
<path id="Vector_2" d="M6.19332 6.55129C6.449 6.71193 6.64394 6.78655 6.86571 6.81915V6.89145C6.86571 7.11796 7.05692 7.3016 7.29278 7.3016C7.52866 7.3016 7.71985 7.11796 7.71985 6.89145V6.77513C8.21742 6.61462 8.53547 6.18893 8.60901 5.76863C8.71057 5.18837 8.38335 4.6643 7.79476 4.4645C7.49626 4.36316 7.16691 4.24137 6.98768 4.10635C6.96017 4.08565 6.93982 4.01833 6.9563 3.93441C6.9645 3.89263 7.00243 3.75298 7.14584 3.7115C7.51044 3.60604 7.6739 3.80149 7.81788 3.87384C8.02694 3.97879 8.28495 3.90116 8.39422 3.7004C8.50085 3.50454 8.42645 3.26383 8.22863 3.15479C8.08223 3.0593 7.94577 2.9715 7.71991 2.91055V2.84717C7.71991 2.62065 7.52869 2.43701 7.29284 2.43701C7.05698 2.43701 6.86576 2.62065 6.86576 2.84717V2.93713C6.03949 3.20463 5.83786 4.28274 6.46059 4.75188C6.73633 4.95955 7.12798 5.10822 7.51013 5.23794C7.76421 5.32418 7.78989 5.5002 7.76671 5.63268C7.73411 5.81883 7.57106 6.01997 7.28999 6.02175C6.97598 6.02429 6.89412 6.01141 6.66094 5.86488C6.46355 5.74085 6.19888 5.79398 6.06973 5.98358C5.94061 6.17307 5.99593 6.42726 6.19332 6.55129Z" fill="#253974"/>
</g>
</svg>
