<svg width="14" height="14" viewBox="0 0 14 14" fill="none" xmlns="http://www.w3.org/2000/svg">
<path id="Vector" d="M7 14C3.13499 14 -4.84667e-07 10.865 -4.84667e-07 7C-4.84667e-07 3.13499 3.13499 0 7 0C10.865 0 14 3.13499 14 7C14 10.865 10.865 14 7 14ZM7.50001 3.00001C7.50001 2.725 7.27501 2.49999 7 2.49999C6.72499 2.49999 6.49998 2.725 6.49998 3.00001V6.76001L4.18748 8.61001C3.97247 8.78251 3.9375 9.09749 4.11 9.3125C4.15668 9.37112 4.21601 9.41842 4.28354 9.45089C4.35108 9.48336 4.42507 9.50014 4.50001 9.49999C4.61001 9.49999 4.72002 9.46498 4.81249 9.38999L7.31248 7.39001C7.42998 7.295 7.49997 7.15251 7.49997 7V3.00001H7.50001Z" fill="#C9C9C9"/>
</svg>
