<svg width="10" height="17" viewBox="0 0 10 17" fill="none" xmlns="http://www.w3.org/2000/svg">
<g id="Group 101007">
<path id="noun-pin-887298" d="M10 5.35796C9.99531 4.73312 9.86253 4.1153 9.60929 3.53979C9.35604 2.96429 8.98727 2.44237 8.52405 2.00388C8.06083 1.56539 7.51224 1.21891 6.90963 0.984236C6.30702 0.749567 5.6622 0.631308 5.01202 0.636217C4.67063 0.636055 4.33013 0.669333 3.99577 0.735535H3.97998C3.19209 0.892014 2.45543 1.22979 1.83318 1.7199C1.21094 2.21001 0.721662 2.83784 0.407301 3.54954C0.355627 3.66542 0.312557 3.78542 0.263754 3.90543C0.263754 3.92199 0.250835 3.93716 0.245093 3.95233C0.0271043 4.59592 -0.046688 5.27655 0.0285889 5.9495C0.103866 6.62244 0.326498 7.27246 0.681847 7.85681C1.0372 8.44116 1.51722 8.94662 2.09036 9.33997C2.6635 9.73331 3.31678 10.0056 4.00725 10.139L4.33596 15.9464C4.33596 16.2016 4.60724 16.6361 4.94169 16.6361H5.10674C5.44119 16.6361 5.71392 16.2043 5.71392 15.9464L6.09574 10.1128C7.20115 9.87336 8.18894 9.27973 8.89687 8.42945C9.6048 7.57917 9.99077 6.52278 9.99137 5.43383C9.99137 5.42141 9.99137 5.409 9.99137 5.39658C9.99137 5.38417 9.99137 5.36762 9.99137 5.35382L10 5.35796Z" fill="#E83636"/>
<ellipse id="Ellipse 7280" cx="4.99982" cy="5.52549" rx="1.81818" ry="1.77791" fill="white"/>
</g>
</svg>
