<svg width="18" height="18" viewBox="0 0 18 18" fill="none" xmlns="http://www.w3.org/2000/svg">
<g id="Group">
<path id="Vector" d="M8.55835 3.17694C8.23476 3.17694 7.97266 3.4412 7.97266 3.76668V9.64217L13.3073 12.42C13.3902 12.4633 13.4822 12.4859 13.5755 12.4859C13.7874 12.4859 13.9921 12.3697 14.0961 12.1669C14.2445 11.8774 14.1322 11.5219 13.8449 11.3724L9.14339 8.924V3.76668C9.14335 3.4412 8.88156 3.17694 8.55835 3.17694Z" fill="#234270"/>
<g id="Group 80944">
<path id="Vector_2" d="M9 0C-3 0.385714 -3 17.6143 9 18C21 17.6143 21 0.385714 9 0Z" fill="#F44336"/>
<path id="Vector_3" d="M10.0696 9L13.2784 5.79123C13.966 5.10363 12.8964 4.03404 12.2088 4.72164L9 7.93041L5.79123 4.72164C5.10363 4.03404 4.03404 5.10363 4.72164 5.79123L7.93041 9L4.72164 12.2088C4.03404 12.8964 5.10363 13.966 5.79123 13.2784L9 10.0696L12.2088 13.2784C12.8964 13.966 13.966 12.8964 13.2784 12.2088L10.0696 9Z" fill="#EEEEEE"/>
</g>
</g>
</svg>
