<svg width="138" height="123" viewBox="0 0 138 123" fill="none" xmlns="http://www.w3.org/2000/svg">
<g id="Group 101000">
<path id="Path 48047" opacity="0.07" d="M95.6608 2.85225C89.5452 4.66606 84.8718 21.9811 78.7516 23.7801C66.7627 27.3034 46.3959 38.7054 34.035 40.3764C21.6741 42.0474 16.5196 34.4679 8.29533 44.0811C-2.38907 56.5736 -2.27533 76.3316 5.90459 90.6776C14.0845 105.024 28.8953 114.362 44.4146 119.138C57.2429 123.086 71.005 124.264 84.1177 121.467C97.4599 118.744 109.499 111.635 118.305 101.28C124.356 93.9595 128.444 85.1512 131.831 76.2035C136.153 64.7856 139.478 52.4257 137.328 40.3809C133.603 19.5075 114.217 -2.6515 95.6608 2.85225Z" fill="#2A8ACB"/>
<g id="Group 80825">
<g id="Clip path group">
<g id="Group 80824">
<path id="Path 48078" d="M15.3389 84.9165V52.7646C15.3314 49.5821 16.0863 46.4438 17.5407 43.6107C18.995 40.7775 21.107 38.3313 23.7008 36.4755C23.8775 35.3713 24.036 34.2649 24.1762 33.1562L22.8921 33.1778C17.7167 33.2167 12.7688 35.3031 9.13659 38.9779C5.50442 42.6528 3.48552 47.6152 3.52398 52.7736V84.9108C3.48644 90.0694 5.50635 95.0316 9.13941 98.7058C12.7725 102.38 17.7211 104.465 22.8967 104.503H34.6559C29.4887 104.458 24.551 102.369 20.9291 98.696C17.3071 95.0226 15.2975 90.0655 15.3423 84.9153" fill="#CEE1F2"/>
<path id="Path 48079" d="M99.9356 27.8066C114.322 27.8066 125.981 37.2395 125.981 48.8773V83.4337C125.981 95.0703 114.319 104.504 99.9356 104.504H29.0779C14.6947 104.504 3.03223 95.0726 3.03223 83.4382V48.8785C3.0345 37.2418 14.697 27.8066 29.0835 27.8066" stroke="#293255" stroke-width="5.33" stroke-miterlimit="10" stroke-linecap="round" stroke-linejoin="round"/>
<path id="Path 48080" d="M89.7441 119.433H39.7285" stroke="#293255" stroke-width="5.33" stroke-miterlimit="10" stroke-linecap="round" stroke-linejoin="round"/>
<path id="Path 48082" d="M67.5716 49.4771C67.5716 50.5264 67.1534 51.5327 66.409 52.2747C65.6646 53.0166 64.655 53.4335 63.6022 53.4335C63.0809 53.4335 62.5648 53.3311 62.0832 53.1323C61.6016 52.9335 61.164 52.6421 60.7954 52.2747C60.4268 51.9073 60.1344 51.4711 59.935 50.9911C59.7355 50.5111 59.6328 49.9967 59.6328 49.4771C59.6328 48.9575 59.7355 48.4431 59.935 47.9631C60.1344 47.4831 60.4268 47.0469 60.7954 46.6795C61.164 46.3122 61.6016 46.0207 62.0832 45.8219C62.5648 45.6231 63.0809 45.5208 63.6022 45.5208C64.655 45.5208 65.6646 45.9376 66.409 46.6795C67.1534 47.4215 67.5716 48.4278 67.5716 49.4771Z" fill="#F76919"/>
<path id="Path 48083" d="M64.4893 39.0727V38.8154C64.4893 31.6917 68.1288 30.1737 74.2706 26.5121C76.1789 25.4537 77.7724 23.911 78.8894 22.0405C80.0064 20.17 80.6072 18.0383 80.6307 15.8617C80.636 14.1386 80.2999 12.4314 79.6419 10.838C78.9839 9.24453 78.0168 7.79622 76.7961 6.57605C75.5754 5.35587 74.1251 4.38783 72.5283 3.72742C70.9315 3.06701 69.2196 2.72723 67.4908 2.72754C61.8745 2.72754 55.6224 5.58313 50.4121 11.5551" stroke="#F76919" stroke-width="4.33" stroke-miterlimit="10" stroke-linecap="round" stroke-linejoin="round"/>
<g id="Group 80819">
<path id="Path 48064" d="M52.6907 75.3849C52.6135 75.2516 52.5106 75.1347 52.388 75.041C52.2654 74.9473 52.1255 74.8786 51.9763 74.8388C51.827 74.799 51.6714 74.7889 51.5182 74.8091C51.3651 74.8292 51.2174 74.8793 51.0837 74.9564L48.7361 76.3077V73.6062C48.7361 73.4523 48.7057 73.2999 48.6466 73.1577C48.5875 73.0155 48.5009 72.8863 48.3917 72.7774C48.2825 72.6686 48.1528 72.5822 48.0101 72.5233C47.8675 72.4644 47.7145 72.4341 47.5601 72.4341C47.4057 72.4341 47.2527 72.4644 47.11 72.5233C46.9674 72.5822 46.8377 72.6686 46.7285 72.7774C46.6193 72.8863 46.5327 73.0155 46.4736 73.1577C46.4145 73.2999 46.3841 73.4523 46.3841 73.6062V76.3077L44.0365 74.9564C43.9028 74.8794 43.7551 74.8295 43.602 74.8094C43.4489 74.7893 43.2933 74.7995 43.1441 74.8393C42.9949 74.8791 42.8551 74.9479 42.7326 75.0416C42.61 75.1353 42.5072 75.2521 42.43 75.3855C42.3528 75.5188 42.3027 75.6659 42.2825 75.8186C42.2624 75.9712 42.2726 76.1263 42.3125 76.275C42.3525 76.4237 42.4215 76.5631 42.5155 76.6852C42.6095 76.8073 42.7268 76.9097 42.8605 76.9867L45.208 78.338L42.8605 79.6893C42.5904 79.8447 42.3933 80.1008 42.3125 80.401C42.2318 80.7013 42.2741 81.0213 42.43 81.2905C42.586 81.5598 42.8428 81.7562 43.1441 81.8367C43.4454 81.9172 43.7664 81.8751 44.0365 81.7196L46.3841 80.3683V83.0686C46.3841 83.3795 46.508 83.6777 46.7285 83.8975C46.9491 84.1173 47.2482 84.2408 47.5601 84.2408C47.872 84.2408 48.1711 84.1173 48.3917 83.8975C48.6122 83.6777 48.7361 83.3795 48.7361 83.0686V80.3672L51.0837 81.7185C51.3538 81.8739 51.6748 81.916 51.9761 81.8355C52.2774 81.7551 52.5342 81.5586 52.6902 81.2894C52.8461 81.0202 52.8884 80.7002 52.8077 80.3999C52.7269 80.0996 52.5298 79.8436 52.2597 79.6881L49.9122 78.3369L52.2597 76.9856C52.3935 76.9086 52.5107 76.8061 52.6047 76.6839C52.6987 76.5617 52.7677 76.4222 52.8076 76.2735C52.8475 76.1247 52.8577 75.9696 52.8374 75.8169C52.8172 75.6643 52.7669 75.5171 52.6896 75.3838L52.6907 75.3849ZM66.1844 75.3849C66.1072 75.2516 66.0043 75.1347 65.8817 75.041C65.7591 74.9473 65.6192 74.8786 65.47 74.8388C65.3207 74.799 65.1651 74.7889 65.0119 74.8091C64.8587 74.8292 64.7111 74.8793 64.5773 74.9564L62.2298 76.3077V73.6062C62.2298 73.2954 62.1059 72.9972 61.8854 72.7774C61.6648 72.5576 61.3657 72.4341 61.0538 72.4341C60.7419 72.4341 60.4428 72.5576 60.2222 72.7774C60.0017 72.9972 59.8777 73.2954 59.8777 73.6062V76.3077L57.5302 74.9564C57.3965 74.8794 57.2488 74.8295 57.0957 74.8094C56.9426 74.7893 56.787 74.7995 56.6378 74.8393C56.4886 74.8791 56.3488 74.9479 56.2263 75.0416C56.1037 75.1353 56.0009 75.2521 55.9237 75.3855C55.8465 75.5188 55.7964 75.6659 55.7762 75.8186C55.7561 75.9712 55.7662 76.1263 55.8062 76.275C55.8462 76.4237 55.9152 76.5631 56.0092 76.6852C56.1032 76.8073 56.2204 76.9097 56.3542 76.9867L58.7017 78.338L56.3542 79.6893C56.0841 79.8447 55.887 80.1008 55.8062 80.401C55.7255 80.7013 55.7678 81.0213 55.9237 81.2905C56.0797 81.5598 56.3365 81.7562 56.6378 81.8367C56.9391 81.9172 57.2601 81.8751 57.5302 81.7196L59.8777 80.3683V83.0686C59.8777 83.3795 60.0017 83.6777 60.2222 83.8975C60.4428 84.1173 60.7419 84.2408 61.0538 84.2408C61.3657 84.2408 61.6648 84.1173 61.8854 83.8975C62.1059 83.6777 62.2298 83.3795 62.2298 83.0686V80.3672L64.5773 81.7185C64.8475 81.8739 65.1685 81.916 65.4698 81.8355C65.771 81.7551 66.0279 81.5586 66.1839 81.2894C66.3398 81.0202 66.3821 80.7002 66.3013 80.3999C66.2206 80.0996 66.0235 79.8436 65.7534 79.6881L63.4059 78.3369L65.7534 76.9856C66.0236 76.8305 66.221 76.5746 66.3021 76.2745C66.3831 75.9743 66.3401 75.6543 66.1844 75.3849ZM79.6781 75.3849C79.6008 75.2516 79.498 75.1347 79.3754 75.041C79.2528 74.9473 79.1129 74.8786 78.9636 74.8388C78.8144 74.799 78.6587 74.7889 78.5056 74.8091C78.3524 74.8292 78.2048 74.8793 78.071 74.9564L75.7235 76.3077V73.6062C75.7235 73.4523 75.6931 73.2999 75.634 73.1577C75.5749 73.0155 75.4882 72.8863 75.379 72.7774C75.2698 72.6686 75.1402 72.5822 74.9975 72.5233C74.8548 72.4644 74.7019 72.4341 74.5475 72.4341C74.393 72.4341 74.2401 72.4644 74.0974 72.5233C73.9547 72.5822 73.8251 72.6686 73.7159 72.7774C73.6067 72.8863 73.5201 73.0155 73.4609 73.1577C73.4018 73.2999 73.3714 73.4523 73.3714 73.6062V76.3077L71.0239 74.9564C70.8902 74.8794 70.7425 74.8295 70.5894 74.8094C70.4363 74.7893 70.2807 74.7995 70.1315 74.8393C69.9823 74.8791 69.8425 74.9479 69.7199 75.0416C69.5974 75.1353 69.4946 75.2521 69.4174 75.3855C69.3402 75.5188 69.29 75.6659 69.2699 75.8186C69.2497 75.9712 69.2599 76.1263 69.2999 76.275C69.3399 76.4237 69.4088 76.5631 69.5029 76.6852C69.5969 76.8073 69.7141 76.9097 69.8479 76.9867L72.1954 78.338L69.8479 79.6893C69.7141 79.7662 69.5969 79.8687 69.5029 79.9908C69.4088 80.113 69.3399 80.2524 69.2999 80.401C69.2599 80.5497 69.2497 80.7048 69.2699 80.8574C69.29 81.01 69.3402 81.1572 69.4174 81.2905C69.4946 81.4238 69.5974 81.5407 69.7199 81.6344C69.8425 81.7281 69.9823 81.7968 70.1315 81.8367C70.2807 81.8765 70.4363 81.8867 70.5894 81.8666C70.7425 81.8465 70.8902 81.7966 71.0239 81.7196L73.3714 80.3683V83.0686C73.3714 83.3795 73.4953 83.6777 73.7159 83.8975C73.9364 84.1173 74.2356 84.2408 74.5475 84.2408C74.8594 84.2408 75.1585 84.1173 75.379 83.8975C75.5996 83.6777 75.7235 83.3795 75.7235 83.0686V80.3672L78.071 81.7185C78.3411 81.8739 78.6622 81.916 78.9634 81.8355C79.2647 81.7551 79.5216 81.5586 79.6775 81.2894C79.8335 81.0202 79.8757 80.7002 79.795 80.3999C79.7143 80.0996 79.5172 79.8436 79.2471 79.6881L76.8995 78.3369L79.2471 76.9856C79.5173 76.8305 79.7147 76.5746 79.7957 76.2745C79.8768 75.9743 79.8338 75.6543 79.6781 75.3849ZM92.7419 79.6927L90.3944 78.3414L92.7419 76.9901C92.8756 76.9132 92.9929 76.8107 93.0869 76.6886C93.1809 76.5664 93.2499 76.4271 93.2898 76.2784C93.3298 76.1297 93.34 75.9746 93.3199 75.822C93.2997 75.6694 93.2496 75.5222 93.1724 75.3889C93.0951 75.2556 92.9923 75.1387 92.8698 75.045C92.7473 74.9513 92.6074 74.8826 92.4583 74.8427C92.3091 74.8029 92.1535 74.7927 92.0004 74.8128C91.8472 74.8329 91.6996 74.8828 91.5658 74.9598L89.2183 76.3111V73.6096C89.2183 73.2988 89.0944 73.0006 88.8739 72.7808C88.6533 72.561 88.3542 72.4375 88.0423 72.4375C87.7304 72.4375 87.4313 72.561 87.2107 72.7808C86.9902 73.0006 86.8663 73.2988 86.8663 73.6096V76.3111L84.5187 74.9598C84.385 74.8828 84.2373 74.8329 84.0842 74.8128C83.9311 74.7927 83.7755 74.8029 83.6263 74.8427C83.4771 74.8826 83.3373 74.9513 83.2148 75.045C83.0922 75.1387 82.9894 75.2556 82.9122 75.3889C82.835 75.5222 82.7849 75.6694 82.7647 75.822C82.7445 75.9746 82.7548 76.1297 82.7947 76.2784C82.8347 76.4271 82.9037 76.5664 82.9977 76.6886C83.0917 76.8107 83.2089 76.9132 83.3427 76.9901L85.6902 78.3414L83.3427 79.6927C83.0726 79.8481 82.8755 80.1041 82.7947 80.4044C82.714 80.7047 82.7563 81.0247 82.9122 81.2939C83.0682 81.5632 83.325 81.7596 83.6263 81.8401C83.9276 81.9206 84.2486 81.8784 84.5187 81.723L86.8663 80.3717V83.0686C86.8663 83.3795 86.9902 83.6777 87.2107 83.8975C87.4313 84.1173 87.7304 84.2408 88.0423 84.2408C88.3542 84.2408 88.6533 84.1173 88.8739 83.8975C89.0944 83.6777 89.2183 83.3795 89.2183 83.0686V80.3672L91.5658 81.7185C91.836 81.8739 92.157 81.916 92.4583 81.8355C92.7595 81.7551 93.0164 81.5586 93.1724 81.2894C93.3283 81.0202 93.3706 80.7002 93.2898 80.3999C93.2091 80.0996 93.012 79.8436 92.7419 79.6881V79.6927Z" fill="#293255"/>
</g>
</g>
</g>
</g>
</g>
</svg>
