<svg width="161" height="149" viewBox="0 0 161 149" fill="none" xmlns="http://www.w3.org/2000/svg">
<g id="Group 80814 1" clip-path="url(#clip0_70_1390)">
<g id="Group 80814">
<g id="Group 80813">
<path id="Ellipse 7272" d="M9.36047 113.942C14.5301 113.942 18.7209 109.177 18.7209 103.3C18.7209 97.4217 14.5301 92.6567 9.36047 92.6567C4.19082 92.6567 0 97.4217 0 103.3C0 109.177 4.19082 113.942 9.36047 113.942Z" fill="#FD6814"/>
<path id="Ellipse 7273" d="M158.504 105.178C159.883 105.178 161 104.337 161 103.3C161 102.262 159.883 101.421 158.504 101.421C157.125 101.421 156.008 102.262 156.008 103.3C156.008 104.337 157.125 105.178 158.504 105.178Z" fill="#73BCFF"/>
<path id="Ellipse 7274" d="M136.039 111.438C137.417 111.438 138.535 110.037 138.535 108.308C138.535 106.579 137.417 105.178 136.039 105.178C134.66 105.178 133.542 106.579 133.542 108.308C133.542 110.037 134.66 111.438 136.039 111.438Z" fill="#73BCFF"/>
<path id="Ellipse 7275" d="M29.3294 149.001C30.3633 149.001 31.2015 147.6 31.2015 145.871C31.2015 144.142 30.3633 142.741 29.3294 142.741C28.2954 142.741 27.4573 144.142 27.4573 145.871C27.4573 147.6 28.2954 149.001 29.3294 149.001Z" fill="#73BCFF"/>
<path id="Ellipse 7276" d="M21.2171 43.8247C22.5956 43.8247 23.7132 42.4233 23.7132 40.6945C23.7132 38.9657 22.5956 37.5642 21.2171 37.5642C19.8385 37.5642 18.7209 38.9657 18.7209 40.6945C18.7209 42.4233 19.8385 43.8247 21.2171 43.8247Z" fill="#73BCFF"/>
<path id="Ellipse 7277" d="M34.9458 103.926C36.3244 103.926 37.442 102.524 37.442 100.795C37.442 99.0665 36.3244 97.665 34.9458 97.665C33.5673 97.665 32.4497 99.0665 32.4497 100.795C32.4497 102.524 33.5673 103.926 34.9458 103.926Z" fill="#73BCFF"/>
<path id="Ellipse 7278" d="M29.9534 5.00962C31.332 5.00962 32.4495 3.88845 32.4495 2.50542C32.4495 1.12239 31.332 0.0012207 29.9534 0.0012207C28.5748 0.0012207 27.4573 1.12239 27.4573 2.50542C27.4573 3.88845 28.5748 5.00962 29.9534 5.00962Z" fill="#73BCFF"/>
</g>
<path id="Path 48047" opacity="0.07" d="M115.276 17.0228C107.742 19.1361 100.558 22.3101 93.02 24.4065C78.2544 28.5128 62.6403 28.3688 47.4123 30.3171C32.1843 32.2654 16.3527 36.8622 6.2257 48.0671C-6.94232 62.6276 -6.80547 85.6564 3.27403 102.371C13.3535 119.085 31.5966 129.974 50.7141 135.539C66.5345 140.357 83.34 141.289 99.6235 138.253C115.776 134.994 131.069 126.933 141.738 114.729C149.193 106.196 154.229 95.9304 158.401 85.504C163.731 72.1972 167.82 57.7918 165.171 43.7512C160.584 19.4282 138.129 10.6091 115.276 17.0228Z" fill="#2A8ACB"/>
<g id="Group 80810">
<g id="Group 80809">
<path id="Path 33648" d="M143.402 26.9989L115.169 41.0224V26.6809C115.172 23.704 113.998 20.8475 111.904 18.738C109.81 16.6285 106.968 15.4382 104.001 15.4282H58.2258C55.2585 15.4382 52.4164 16.6285 50.3228 18.738C48.2292 20.8475 47.0551 23.704 47.0581 26.6809V91.8765C47.0581 92.1307 47.108 92.3824 47.205 92.6173C47.3019 92.8521 47.4441 93.0655 47.6232 93.2453C47.8024 93.425 48.0151 93.5676 48.2492 93.6649C48.4833 93.7622 48.7342 93.8122 48.9876 93.8122C49.241 93.8122 49.4919 93.7622 49.726 93.6649C49.9601 93.5676 50.1728 93.425 50.352 93.2453C50.5311 93.0655 50.6733 92.8521 50.7702 92.6173C50.8672 92.3824 50.9171 92.1307 50.9171 91.8765V26.6809C50.9154 24.7328 51.6839 22.8636 53.054 21.4832C54.4241 20.1028 56.284 19.3239 58.2258 19.3172H104.001C105.943 19.3239 107.803 20.1028 109.173 21.4832C110.543 22.8636 111.311 24.7328 111.31 26.6809V42.5537C111.31 42.6764 111.322 42.7988 111.345 42.9193L60.0379 68.4021C59.5121 68.6639 59.0806 69.0837 58.8035 69.6029C58.5265 70.1222 58.4176 70.7151 58.492 71.2993C58.5664 71.8836 58.8204 72.43 59.2187 72.8627C59.617 73.2953 60.1398 73.5927 60.7144 73.7135L79.172 77.5324L85.2401 103.155C85.3879 103.768 85.737 104.312 86.231 104.701C86.7251 105.09 87.3354 105.301 87.9633 105.299H88.0295C88.5079 105.29 88.9759 105.157 89.3884 104.913C89.8008 104.67 90.1439 104.324 90.3846 103.909L102.865 89.8857C103.207 89.5009 103.383 88.9962 103.355 88.4817C103.327 87.9673 103.097 87.4849 102.715 87.1398C102.527 86.9694 102.307 86.8381 102.068 86.7534C101.829 86.6687 101.575 86.6323 101.322 86.6463C101.069 86.6602 100.821 86.7243 100.592 86.8348C100.364 86.9453 100.16 87.1 99.9909 87.29L92.6273 95.5627L96.2842 81.2361L123.658 90.1599C124.012 90.2838 124.387 90.3338 124.761 90.3067C125.135 90.2796 125.499 90.176 125.832 90.0023C126.164 89.8285 126.457 89.5884 126.694 89.2965C126.93 89.0047 127.105 88.6675 127.206 88.3055L146.023 29.5569C146.034 29.5206 146.043 29.4843 146.053 29.4455C146.144 29.0866 146.136 28.7098 146.03 28.355C145.925 28.0003 145.726 27.6807 145.454 27.43C145.183 27.1794 144.849 27.007 144.487 26.9311C144.126 26.8552 143.751 26.8786 143.402 26.9989ZM82.9299 76.656L100.85 62.7188C101.255 62.4028 101.52 61.9386 101.585 61.4276C101.651 60.9166 101.512 60.4004 101.199 59.9917C101.045 59.7897 100.852 59.6203 100.633 59.4932C100.413 59.3661 100.171 59.2838 99.9191 59.2511C99.6676 59.2184 99.4122 59.2359 99.1675 59.3027C98.9228 59.3694 98.6936 59.484 98.4932 59.6399L80.2865 73.7962L64.4885 70.5207L134.464 35.7686L94.0152 76.1175C93.5551 76.5619 93.2604 77.1509 93.1802 77.7866L88.0033 98.0669L82.9299 76.656ZM123.846 86.1394L97.9291 77.6864L139.989 35.7348L123.846 86.1394Z" fill="#293255"/>
<path id="Path 33649" d="M113.872 95.6177C113.616 95.6177 113.363 95.6682 113.126 95.7664C112.89 95.8647 112.675 96.0086 112.494 96.1901C112.313 96.3716 112.17 96.5871 112.072 96.8242C111.974 97.0614 111.924 97.3155 111.924 97.5722V128.477C111.921 130.439 111.143 132.321 109.76 133.708C108.377 135.096 106.501 135.877 104.545 135.879H58.3319C56.3757 135.877 54.5003 135.096 53.117 133.708C51.7338 132.321 50.9556 130.439 50.9533 128.477V117.163C50.9533 116.644 50.7481 116.147 50.3827 115.781C50.0174 115.414 49.5218 115.208 49.0051 115.208C48.4884 115.208 47.9929 115.414 47.6275 115.781C47.2621 116.147 47.0569 116.644 47.0569 117.163V128.475C47.0599 131.474 48.2487 134.35 50.3625 136.471C52.4763 138.592 55.3424 139.785 58.3319 139.788H104.545C107.534 139.785 110.4 138.592 112.514 136.471C114.628 134.351 115.817 131.476 115.82 128.477V97.5722C115.82 97.0538 115.615 96.5567 115.249 96.1901C114.884 95.8236 114.389 95.6177 113.872 95.6177Z" fill="#293255"/>
<path id="Path 33650" d="M76.3151 129.621C76.3155 129.877 76.3663 130.131 76.4645 130.367C76.5627 130.604 76.7064 130.818 76.8873 130.999C77.0682 131.18 77.2829 131.323 77.519 131.42C77.7551 131.518 78.008 131.568 78.2633 131.567H84.0793C84.5936 131.567 85.087 131.362 85.4507 130.997C85.8144 130.632 86.0188 130.137 86.0188 129.621C86.0188 129.105 85.8144 128.61 85.4507 128.245C85.087 127.88 84.5936 127.675 84.0793 127.675H78.2583C77.7436 127.675 77.2499 127.88 76.8855 128.245C76.5212 128.61 76.316 129.105 76.3151 129.621ZM93.1477 28.589C93.4024 28.589 93.6546 28.5387 93.8899 28.4409C94.1252 28.3431 94.339 28.1998 94.5191 28.0191C94.6992 27.8385 94.8421 27.624 94.9395 27.3879C95.037 27.1518 95.0872 26.8988 95.0872 26.6433C95.0872 26.3878 95.037 26.1347 94.9395 25.8987C94.8421 25.6626 94.6992 25.4481 94.5191 25.2674C94.339 25.0867 94.1252 24.9434 93.8899 24.8456C93.6546 24.7478 93.4024 24.6975 93.1477 24.6975H69.1949C68.9402 24.6975 68.688 24.7478 68.4527 24.8456C68.2174 24.9434 68.0035 25.0867 67.8235 25.2674C67.6434 25.4481 67.5005 25.6626 67.403 25.8987C67.3056 26.1347 67.2554 26.3878 67.2554 26.6433C67.2554 26.8988 67.3056 27.1518 67.403 27.3879C67.5005 27.624 67.6434 27.8385 67.8235 28.0191C68.0035 28.1998 68.2174 28.3431 68.4527 28.4409C68.688 28.5387 68.9402 28.589 69.1949 28.589H93.1477Z" fill="#293255"/>
</g>
<path id="Path 33651" d="M75.2169 83.2057C75.0522 83.0093 74.8504 82.8473 74.6233 82.729C74.3961 82.6108 74.1479 82.5387 73.8929 82.5167C73.6379 82.4947 73.3811 82.5234 73.1372 82.601C72.8933 82.6786 72.6669 82.8037 72.4712 82.9691L37.508 112.506C37.3109 112.671 37.1483 112.873 37.0294 113.101C36.9105 113.33 36.8377 113.579 36.8151 113.836C36.7926 114.092 36.8208 114.35 36.8981 114.596C36.9754 114.841 37.1003 115.069 37.2656 115.266C37.4309 115.463 37.6334 115.625 37.8614 115.743C38.0893 115.862 38.3384 115.933 38.5941 115.955C38.8498 115.976 39.1072 115.947 39.3516 115.868C39.5959 115.789 39.8223 115.663 40.0178 115.496L74.981 85.9591C75.3762 85.6253 75.623 85.1477 75.6672 84.6314C75.7114 84.115 75.5495 83.6023 75.2169 83.2057ZM75.7161 96.3402L63.2455 107.302C63.0484 107.47 62.8865 107.676 62.7692 107.907C62.652 108.138 62.5818 108.39 62.5626 108.649C62.5435 108.907 62.5759 109.167 62.6579 109.413C62.7398 109.659 62.8698 109.886 63.0401 110.081C63.2105 110.276 63.4178 110.435 63.65 110.549C63.8822 110.663 64.1347 110.729 64.3928 110.744C64.6508 110.759 64.9093 110.723 65.1531 110.636C65.3969 110.55 65.6211 110.416 65.8128 110.242L78.2847 99.2802C78.4818 99.1124 78.6437 98.907 78.761 98.6759C78.8782 98.4448 78.9484 98.1926 78.9675 97.934C78.9867 97.6754 78.9543 97.4155 78.8723 97.1696C78.7903 96.9237 78.6604 96.6965 78.4901 96.5015C78.3197 96.3064 78.1124 96.1473 77.8802 96.0334C77.6479 95.9196 77.3955 95.8532 77.1374 95.8382C76.8793 95.8232 76.6209 95.8599 76.3771 95.9461C76.1333 96.0322 75.9078 96.1662 75.7161 96.3402Z" fill="#EA7513"/>
</g>
</g>
</g>
<defs>
<clipPath id="clip0_70_1390">
<rect width="161" height="149" fill="white"/>
</clipPath>
</defs>
</svg>
