<svg width="22" height="22" viewBox="0 0 22 22" fill="none" xmlns="http://www.w3.org/2000/svg">
<g id="Group 101007">
<ellipse id="Ellipse 7280" cx="11.4968" cy="11.334" rx="2.72727" ry="2.66687" fill="white"/>
<g id="Group">
<path id="Vector" d="M11 0C4.91938 0 0 4.93588 0 11C0 17.0501 4.9016 22 11 22C17.0786 22 22 17.0656 22 11C22 4.93979 17.0835 0 11 0ZM18.7676 17.4861C17.9066 17.0436 16.9309 16.6979 15.9826 16.4517C16.427 14.9356 16.6795 13.2249 16.7152 11.44H21.1104C21.0144 13.6598 20.1932 15.7806 18.7676 17.4861ZM3.23233 17.4861C1.80682 15.7806 0.985644 13.6598 0.889548 11.44H5.28475C5.32048 13.2249 5.573 14.9356 6.01731 16.4517C5.06818 16.6984 4.10881 17.0374 3.23233 17.4861ZM3.23233 4.51387C4.1074 4.96219 5.06959 5.30156 6.01731 5.54827C5.573 7.06438 5.32048 8.77501 5.28475 10.56H0.889548C0.985644 8.34016 1.80682 6.21936 3.23233 4.51387ZM15.7107 4.71108C15.2652 3.46905 14.6021 2.17193 13.6745 1.24128C15.3535 1.70249 16.9002 2.59261 18.1492 3.83847C17.3858 4.20693 16.5101 4.51123 15.7107 4.71108ZM11.44 5.2749V0.923428C12.5145 1.13397 13.5309 2.11152 14.34 3.72975C14.525 4.09988 14.694 4.49385 14.8466 4.90798C13.7251 5.13304 12.5746 5.25087 11.44 5.2749ZM10.56 5.2749C9.41578 5.2507 8.26214 5.13093 7.15339 4.90798C7.30594 4.49381 7.47498 4.09983 7.66 3.72975C8.46912 2.11152 9.48552 1.13392 10.56 0.923428V5.2749ZM10.56 6.15507V10.56H6.16488C6.20057 8.83824 6.44534 7.19475 6.87487 5.74816C8.0146 5.98404 9.26169 6.12867 10.56 6.15507ZM10.56 11.44V15.8449C9.33376 15.8699 8.07096 16.0033 6.87491 16.2518C6.44534 14.8053 6.20057 13.1618 6.16488 11.44H10.56ZM10.56 16.7251V21.0766C9.48552 20.866 8.46912 19.8884 7.66 18.2703C7.47494 17.9001 7.30594 17.5061 7.15339 17.092C8.21942 16.8768 9.37948 16.7501 10.56 16.7251ZM11.44 16.7251C12.6178 16.75 13.7731 16.8758 14.8466 17.092C14.694 17.5061 14.525 17.9001 14.34 18.2703C13.5309 19.8884 12.5145 20.866 11.44 21.0766V16.7251ZM11.44 15.8449V11.44H15.8352C15.7994 13.1618 15.5547 14.8053 15.1251 16.2518C13.9921 16.0165 12.7366 15.8713 11.44 15.8449ZM11.44 10.56V6.15507C12.7529 6.12836 13.9952 5.98167 15.1251 5.74816C15.5547 7.1947 15.7994 8.83824 15.8352 10.56H11.44ZM6.28927 4.71108C5.46427 4.50274 4.61459 4.20768 3.85075 3.83847C5.09978 2.59261 6.64646 1.70249 8.32559 1.24128C7.39649 2.17329 6.73372 3.47208 6.28927 4.71108ZM6.28927 17.2889C6.73354 18.5276 7.3964 19.8267 8.32559 20.7587C6.64646 20.2975 5.09978 19.4073 3.85075 18.1615C4.61573 17.7916 5.46581 17.4979 6.28927 17.2889ZM15.7107 17.2889C16.4992 17.486 17.3861 17.7922 18.1493 18.1615C16.9002 19.4073 15.3535 20.2975 13.6745 20.7587C14.6036 19.8266 15.2665 18.5275 15.7107 17.2889ZM16.7152 10.56C16.6795 8.77501 16.427 7.06438 15.9827 5.54827C16.9468 5.29791 17.9123 4.95255 18.7677 4.51392C20.1932 6.21936 21.0144 8.3402 21.1105 10.56H16.7152V10.56Z" fill="#253974"/>
</g>
</g>
</svg>
