<svg width="18" height="18" viewBox="0 0 18 18" fill="none" xmlns="http://www.w3.org/2000/svg">
<g id="Group">
<path id="Vector" d="M10.8182 16.4488C10.6693 16.4862 10.5192 16.519 10.3683 16.547C9.9756 16.6206 9.71601 17.001 9.78864 17.3969C9.82293 17.5841 9.92877 17.7503 10.0834 17.8597C10.1622 17.9158 10.2513 17.9553 10.3455 17.9761C10.4397 17.9968 10.5371 17.9983 10.6319 17.9805C10.8117 17.9469 10.9905 17.9078 11.1679 17.8633C11.5557 17.7661 11.7919 17.3704 11.6952 16.98C11.5987 16.5893 11.2062 16.3515 10.8182 16.4488ZM16.1693 6.67887C16.2179 6.82695 16.3124 6.95538 16.439 7.04516C16.6203 7.17374 16.8574 7.217 17.0837 7.14163C17.4631 7.01472 17.6687 6.60259 17.5432 6.22059C17.4857 6.04573 17.4229 5.87267 17.355 5.70167C17.2065 5.32789 16.7856 5.14591 16.4144 5.29542C16.0435 5.44485 15.8628 5.86895 16.0113 6.24284C16.0684 6.38653 16.1211 6.53194 16.1693 6.67887ZM13.1696 15.4081C13.0413 15.4934 12.9106 15.5748 12.7774 15.6521C12.4312 15.8533 12.3126 16.2992 12.5122 16.6478C12.5646 16.7394 12.6361 16.8185 12.7218 16.8794C12.945 17.0376 13.2482 17.0613 13.5006 16.9148C13.659 16.8228 13.8147 16.726 13.9673 16.6244C14.3006 16.4026 14.3923 15.9503 14.172 15.6145C13.9517 15.2784 13.503 15.1862 13.1696 15.4081ZM17.9931 8.71465C17.9774 8.31234 17.641 7.99921 17.2415 8.01492C16.8425 8.03078 16.5314 8.36975 16.547 8.7719C16.553 8.92566 16.5546 9.08172 16.5511 9.23533C16.5455 9.48762 16.668 9.71251 16.8583 9.84768C16.9757 9.931 17.1151 9.97715 17.2586 9.98023C17.658 9.98916 17.989 9.67006 17.9978 9.26756C18.0018 9.08402 18.0003 8.89807 17.9931 8.71465ZM16.0512 13.4906C15.731 13.2486 15.2779 13.3143 15.038 13.6363C14.9458 13.76 14.8499 13.8809 14.7504 13.9987C14.4915 14.3051 14.5281 14.7652 14.8322 15.0262C14.8495 15.041 14.8671 15.0546 14.8853 15.0674C15.1876 15.2821 15.6078 15.2327 15.8523 14.9438C15.9711 14.8031 16.0856 14.6588 16.1956 14.5111C16.4355 14.189 16.3706 13.7323 16.0512 13.4906ZM17.1149 10.8557C16.7336 10.7353 16.3275 10.9491 16.208 11.3332C16.162 11.4809 16.1116 11.6272 16.0569 11.7718C15.9367 12.0897 16.0518 12.4395 16.3157 12.6269C16.3652 12.662 16.4188 12.6907 16.4754 12.7123C16.8487 12.8558 17.2668 12.6671 17.4091 12.2909C17.4741 12.1188 17.5341 11.9449 17.5889 11.7693C17.7083 11.3851 17.4961 10.9762 17.1149 10.8557ZM7.66118 16.5536C7.01942 16.4379 6.39544 16.2382 5.80515 15.9594C5.79818 15.9558 5.79195 15.9516 5.78464 15.9482C5.64554 15.8824 5.50838 15.8124 5.37333 15.7385C5.37287 15.7379 5.37202 15.7376 5.37128 15.7373C5.12323 15.5996 4.8829 15.4483 4.65136 15.2841C1.24745 12.8687 0.429014 8.11415 2.82698 4.68541C3.34841 3.94011 3.97941 3.31833 4.68289 2.82552C4.69156 2.81944 4.70023 2.8134 4.70882 2.80728C7.18777 1.08674 10.5538 0.970783 13.186 2.7388L12.6207 3.56162C12.4635 3.79064 12.5602 3.95754 12.8354 3.93259L15.2911 3.71113C15.5666 3.68619 15.7314 3.44614 15.6573 3.17814L14.9978 0.784791C14.924 0.516481 14.735 0.484365 14.5776 0.713348L14.011 1.53811C12.0793 0.231919 9.76237 -0.266152 7.46272 0.135532C7.23252 0.175766 7.00395 0.224912 6.7775 0.282861C6.77576 0.283172 6.77437 0.283367 6.77298 0.283679C6.76427 0.285823 6.75545 0.288668 6.74697 0.291045C4.76395 0.804006 3.03379 1.96903 1.79921 3.63127C1.78881 3.6437 1.77809 3.65586 1.76826 3.66939C1.72701 3.72544 1.68645 3.782 1.64657 3.83905C1.58107 3.93275 1.51737 4.02772 1.4555 4.12389C1.4478 4.13542 1.44192 4.14715 1.43519 4.15881C0.4164 5.74906 -0.0750019 7.58755 0.00927167 9.45924C0.00946513 9.4654 0.00911689 9.4716 0.00927167 9.47791C0.0176333 9.66187 0.0316727 9.84552 0.0513697 10.0286C0.0524145 10.0404 0.0550069 10.0515 0.0569802 10.0633C0.077099 10.2478 0.102881 10.4317 0.134289 10.6146C0.457144 12.4908 1.33579 14.1791 2.6524 15.4928C2.65545 15.4959 2.65863 15.4992 2.66172 15.5024C2.6628 15.5036 2.664 15.5043 2.66505 15.5054C3.02215 15.8603 3.40772 16.1848 3.81783 16.4758C4.90201 17.2454 6.10927 17.754 7.4058 17.9884C7.79919 18.0596 8.17498 17.7958 8.24556 17.3997C8.3161 17.0034 8.05445 16.6246 7.66118 16.5536Z" fill="#234270"/>
<path id="Vector_2" d="M8.55835 3.17694C8.23476 3.17694 7.97266 3.4412 7.97266 3.76668V9.64217L13.3073 12.42C13.3902 12.4633 13.4822 12.4859 13.5755 12.4859C13.7874 12.4859 13.9921 12.3697 14.0961 12.1669C14.2445 11.8774 14.1322 11.5219 13.8449 11.3724L9.14339 8.924V3.76668C9.14335 3.4412 8.88156 3.17694 8.55835 3.17694Z" fill="#234270"/>
</g>
</svg>
