<svg width="13" height="18" viewBox="0 0 13 18" fill="none" xmlns="http://www.w3.org/2000/svg">
<path id="Path 4369" d="M6.42789 0C4.72377 0.00219832 3.09008 0.689715 1.88509 1.91177C0.680092 3.13382 0.00216763 4.79065 0 6.5189C0 10.9802 5.75207 17.5296 5.99782 17.8051C6.05211 17.8665 6.11852 17.9155 6.19274 17.9491C6.26695 17.9826 6.34731 18 6.42858 18C6.50984 18 6.59019 17.9826 6.66441 17.9491C6.73862 17.9155 6.80504 17.8665 6.85933 17.8051C7.10372 17.5282 12.8571 10.9788 12.8571 6.5189C12.855 4.79042 12.1769 3.13337 10.9716 1.91128C9.76629 0.689187 8.13224 0.00183195 6.42789 0ZM6.42789 9.79912C5.78818 9.79912 5.16284 9.60674 4.63094 9.2463C4.09904 8.88587 3.68448 8.37357 3.43968 7.77418C3.19487 7.1748 3.13081 6.51526 3.25562 5.87896C3.38042 5.24266 3.68847 4.65818 4.14081 4.19943C4.59315 3.74069 5.16947 3.42828 5.79689 3.30171C6.42431 3.17514 7.07464 3.2401 7.66565 3.48837C8.25666 3.73664 8.76182 4.15708 9.11722 4.69651C9.47263 5.23594 9.66232 5.87013 9.66232 6.5189C9.66159 7.38864 9.32059 8.22255 8.71418 8.83755C8.10776 9.45256 7.28549 9.79839 6.42789 9.79912Z" fill="#EC2F2F"/>
</svg>
