<svg width="16" height="21" viewBox="0 0 16 21" fill="none" xmlns="http://www.w3.org/2000/svg">
<g id="Group">
<path id="Vector" d="M7.8 0.75C4.55 0.75 1.95 3.1875 1.95 6.23438V8.67188C0.845 8.67188 0 9.46406 0 10.5V18.4219C0 19.4578 0.845 20.25 1.95 20.25H13.65C14.755 20.25 15.6 19.4578 15.6 18.4219V10.5C15.6 9.46406 14.755 8.67188 13.65 8.67188V6.23438C13.65 3.1875 11.05 0.75 7.8 0.75ZM14.3 10.5V18.4219C14.3 18.7875 14.04 19.0312 13.65 19.0312H1.95C1.56 19.0312 1.3 18.7875 1.3 18.4219V10.5C1.3 10.1344 1.56 9.89062 1.95 9.89062H13.65C14.04 9.89062 14.3 10.1344 14.3 10.5ZM3.25 8.67188V6.23438C3.25 3.85781 5.265 1.96875 7.8 1.96875C10.335 1.96875 12.35 3.85781 12.35 6.23438V8.67188H3.25Z" fill="#AAAAAA"/>
<path id="Vector_2" d="M7.8001 11.7188C6.6951 11.7188 5.8501 12.5109 5.8501 13.5469C5.8501 14.3391 6.3701 15.0094 7.1501 15.2531V16.5938C7.1501 16.9594 7.4101 17.2031 7.8001 17.2031C8.1901 17.2031 8.4501 16.9594 8.4501 16.5938V15.2531C9.2301 15.0094 9.7501 14.3391 9.7501 13.5469C9.7501 12.5109 8.9051 11.7188 7.8001 11.7188ZM7.8001 14.1563C7.4101 14.1563 7.1501 13.9125 7.1501 13.5469C7.1501 13.1813 7.4101 12.9375 7.8001 12.9375C8.1901 12.9375 8.4501 13.1813 8.4501 13.5469C8.4501 13.9125 8.1901 14.1563 7.8001 14.1563Z" fill="#AAAAAA"/>
</g>
</svg>
