<svg width="17" height="23" viewBox="0 0 17 23" fill="none" xmlns="http://www.w3.org/2000/svg">
<g id="Group">
<g id="Group_2">
<path id="Vector" fill-rule="evenodd" clip-rule="evenodd" d="M2.95925 0.384491H10.559L17.0001 6.95048V19.7214C17.0001 21.3212 15.6767 22.6155 14.0465 22.6155H2.95925C1.32342 22.6155 4.67462e-10 21.3212 4.67462e-10 19.7214V3.27863C-2.87203e-05 1.6788 1.3234 0.384491 2.95925 0.384491Z" fill="#E5252A"/>
<g id="Group_3">
<path id="Vector_2" opacity="0.302" fill-rule="evenodd" clip-rule="evenodd" d="M10.5527 0.384491V6.90049H16.9995L10.5527 0.384491Z" fill="white"/>
<path id="Vector_3" d="M3.28906 16.9716V12.9109H5.05553C5.49289 12.9109 5.83938 13.0276 6.10065 13.2664C6.36193 13.4997 6.49258 13.8164 6.49258 14.2108C6.49258 14.6052 6.36193 14.9218 6.10065 15.1551C5.83938 15.394 5.49289 15.5107 5.05553 15.5107H4.35121V16.9716H3.28906ZM4.35121 14.6274H4.93626C5.09528 14.6274 5.22025 14.5941 5.30546 14.5163C5.39065 14.4441 5.43611 14.3441 5.43611 14.2108C5.43611 14.0775 5.39068 13.9775 5.30546 13.9053C5.22028 13.8275 5.09531 13.7942 4.93626 13.7942H4.35121V14.6274ZM6.92991 16.9716V12.9109H8.40102C8.69069 12.9109 8.96334 12.9498 9.21893 13.0331C9.47451 13.1164 9.70741 13.2331 9.91187 13.3942C10.1164 13.5497 10.2811 13.7608 10.4004 14.0275C10.5139 14.2941 10.5764 14.5996 10.5764 14.944C10.5764 15.2829 10.514 15.5884 10.4004 15.8551C10.2811 16.1217 10.1164 16.3328 9.91187 16.4883C9.70738 16.6494 9.47451 16.7661 9.21893 16.8494C8.96334 16.9327 8.69069 16.9716 8.40102 16.9716H6.92991ZM7.96934 16.0884H8.27605C8.44077 16.0884 8.59413 16.0717 8.73613 16.0328C8.87244 15.994 9.00309 15.9328 9.12805 15.8495C9.24733 15.7662 9.34389 15.6495 9.41204 15.494C9.4802 15.3385 9.51429 15.1551 9.51429 14.944C9.51429 14.7274 9.4802 14.5441 9.41204 14.3886C9.34389 14.233 9.24733 14.1164 9.12805 14.033C9.00309 13.9497 8.87247 13.8886 8.73613 13.8497C8.59413 13.8109 8.44077 13.7942 8.27605 13.7942H7.96934V16.0884ZM11.1104 16.9716V12.9109H14.0639V13.7942H12.1725V14.4441H13.6834V15.3218H12.1725V16.9716H11.1104Z" fill="white"/>
</g>
</g>
</g>
</svg>
