<svg width="14" height="23" viewBox="0 0 14 23" fill="none" xmlns="http://www.w3.org/2000/svg">
<g id="Group">
<path id="Vector" d="M11.2699 0H2.72989C1.22276 0.00151918 0.00153125 1.09592 0 2.44647V20.5537C0.00147656 21.9043 1.22281 22.9986 2.72989 23H11.2699C12.777 22.9987 13.9982 21.9042 14 20.5537V2.44647C13.9983 1.09592 12.777 0.00156819 11.2699 0ZM12.8332 20.5537C12.8323 21.3271 12.1329 21.9538 11.2699 21.9546H2.72989C1.86687 21.9538 1.16747 21.3271 1.16659 20.5537V2.44647C1.16747 1.67291 1.86687 1.04618 2.72989 1.04539H11.2699C12.1329 1.04618 12.8323 1.67291 12.8332 2.44647V20.5537Z" fill="#AAAAAA"/>
<path id="Vector_2" d="M8.6835 2.091H5.1835C4.86139 2.091 4.6001 2.32491 4.6001 2.6136C4.6001 2.90229 4.86134 3.1364 5.1835 3.1364H8.6835C9.00561 3.1364 9.26669 2.90229 9.26669 2.6136C9.26669 2.32491 9.00567 2.091 8.6835 2.091ZM8.1001 19.8637C8.1001 20.4412 7.57783 20.9092 6.9335 20.9092C6.28901 20.9092 5.76669 20.4412 5.76669 19.8637C5.76669 19.2863 6.28896 18.8183 6.9335 18.8183C7.57778 18.8183 8.1001 19.2863 8.1001 19.8637Z" fill="#AAAAAA"/>
</g>
</svg>
