<svg width="18" height="18" viewBox="0 0 18 18" fill="none" xmlns="http://www.w3.org/2000/svg">
<g id="Group">
<g id="Group_2">
<g id="Group_3">
<g id="Group_4">
<g id="Group_5">
<path id="Vector" d="M6.95857 8.37001C6.59699 8.01001 6.05463 8.01001 5.69306 8.37001C5.33148 8.73001 5.33148 9.27001 5.69306 9.63001L8.40487 12.33C8.58566 12.51 8.76645 12.6 9.03763 12.6C9.30881 12.6 9.4896 12.51 9.67038 12.33L15.998 5.13001C16.2691 4.68001 16.2691 4.14001 15.8172 3.87001C15.4556 3.60001 14.9132 3.60001 14.642 3.96001L9.03763 10.35L6.95857 8.37001Z" fill="#316D27"/>
<path id="Vector_2" d="M17.1748 8.1C16.6325 8.1 16.2709 8.46 16.2709 9C16.2709 12.96 13.0167 16.2 9.03938 16.2C5.06205 16.2 1.80788 12.96 1.80788 9C1.80788 7.11 2.53103 5.31 3.88693 3.96C5.24284 2.52 7.05072 1.8 9.03938 1.8C9.58174 1.8 10.2145 1.89 10.7569 1.98C11.2088 2.16 11.7512 1.89 11.932 1.35C12.1128 0.81 11.7512 0.45 11.2992 0.27H11.2088C10.4857 0.09 9.76253 0 9.03938 0C4.06772 0 0 4.05 0 9.09C0 11.43 0.994332 13.77 2.62142 15.39C4.3389 17.1 6.59875 18 8.94899 18C13.9206 18 17.9884 13.95 17.9884 9C18.0788 8.46 17.6268 8.1 17.1748 8.1Z" fill="#316D27"/>
</g>
</g>
</g>
</g>
</g>
</svg>
